<svg width="88" height="22" viewBox="0 0 88 22" fill="none" xmlns="http://www.w3.org/2000/svg">
<g clip-path="url(#clip0_103_692)">
<path d="M26.8453 14.7515H33.0323V12.864H29.0443V5.75452H26.8453V14.7515Z" fill="#999999"/>
<path d="M36.6977 13.4949C35.8156 13.4949 35.3559 12.7148 35.3559 11.5445C35.3559 10.3743 35.8156 9.58158 36.6977 9.58158C37.5797 9.58158 38.0518 10.3743 38.0518 11.5445C38.0518 12.7148 37.5797 13.4949 36.6977 13.4949ZM36.7101 14.9546C38.76 14.9546 40.1017 13.4824 40.1017 11.5445C40.1017 9.60675 38.76 8.13452 36.7101 8.13452C34.6726 8.13452 33.306 9.60675 33.306 11.5445C33.306 13.4824 34.6726 14.9546 36.7101 14.9546Z" fill="#999999"/>
<path d="M43.6499 16.9799C44.5941 16.9799 45.4265 16.766 45.9855 16.2627C46.4949 15.7971 46.8303 15.0925 46.8303 14.1236V8.31015H44.8922V9.00222H44.8674C44.4947 8.46114 43.9232 8.1214 43.0784 8.1214C41.5006 8.1214 40.4073 9.45521 40.4073 11.3427C40.4073 13.3182 41.7367 14.4004 43.1654 14.4004C43.9356 14.4004 44.4201 14.0858 44.7929 13.658H44.8425V14.2997C44.8425 15.0799 44.4823 15.5329 43.625 15.5329C42.9542 15.5329 42.6187 15.2435 42.5069 14.9037H40.544C40.7428 16.2501 41.8982 16.9799 43.6499 16.9799ZM43.6375 12.8778C42.8796 12.8778 42.3827 12.2487 42.3827 11.2798C42.3827 10.2983 42.8796 9.66912 43.6375 9.66912C44.4823 9.66912 44.9295 10.3989 44.9295 11.2672C44.9295 12.1732 44.5195 12.8778 43.6375 12.8778Z" fill="#999999"/>
<path d="M50.8153 13.4949C49.9333 13.4949 49.4736 12.7148 49.4736 11.5445C49.4736 10.3743 49.9333 9.58158 50.8153 9.58158C51.6974 9.58158 52.1695 10.3743 52.1695 11.5445C52.1695 12.7148 51.6974 13.4949 50.8153 13.4949ZM50.8278 14.9546C52.8776 14.9546 54.2194 13.4824 54.2194 11.5445C54.2194 9.60675 52.8776 8.13452 50.8278 8.13452C48.7903 8.13452 47.4237 9.60675 47.4237 11.5445C47.4237 13.4824 48.7903 14.9546 50.8278 14.9546Z" fill="#999999"/>
<path d="M54.8104 14.7515H56.8355V8.30889H54.8104V14.7515ZM54.8104 7.41549H56.8355V5.75452H54.8104V7.41549Z" fill="#999999"/>
<path d="M57.7146 16.8793H59.7396V14.0858H59.7645C60.162 14.6269 60.7459 14.954 61.5659 14.954C63.2306 14.954 64.3363 13.6202 64.3363 11.5314C64.3363 9.59363 63.3052 8.1214 61.6156 8.1214C60.7459 8.1214 60.1248 8.51148 59.6899 9.0903H59.6527V8.31015H57.7146V16.8793ZM61.0441 13.3686C60.1745 13.3686 59.6775 12.6513 59.6775 11.6069C59.6775 10.5625 60.1248 9.76979 61.0068 9.76979C61.8765 9.76979 62.2865 10.4996 62.2865 11.6069C62.2865 12.7017 61.8144 13.3686 61.0441 13.3686Z" fill="#999999"/>
<path d="M67.6331 14.954C69.2979 14.954 70.5278 14.2242 70.5278 12.8149C70.5278 11.1665 69.2109 10.8771 68.0928 10.6884C67.2853 10.5374 66.5647 10.4744 66.5647 10.0215C66.5647 9.61879 66.9498 9.43004 67.4468 9.43004C68.0058 9.43004 68.391 9.60621 68.4655 10.185H70.329C70.2297 8.91414 69.2606 8.1214 67.4592 8.1214C65.956 8.1214 64.7136 8.82605 64.7136 10.185C64.7136 11.695 65.8938 11.997 66.9995 12.1858C67.8443 12.3367 68.6146 12.3997 68.6146 12.9785C68.6146 13.3937 68.2295 13.6202 67.6207 13.6202C66.9498 13.6202 66.5274 13.3056 66.4529 12.6639H64.5397C64.6018 14.0858 65.7696 14.954 67.6331 14.954Z" fill="#999999"/>
<path d="M73.2787 14.9417C74.1608 14.9417 74.7198 14.5893 75.1795 13.9602H75.2168V14.7529H77.1549V8.31036H75.1298V11.9091C75.1298 12.6767 74.7074 13.2052 74.0117 13.2052C73.3657 13.2052 73.0551 12.8151 73.0551 12.1105V8.31036H71.0425V12.5383C71.0425 13.9728 71.8127 14.9417 73.2787 14.9417Z" fill="#999999"/>
<path d="M78.0352 14.7527H80.0602V11.1414C80.0602 10.3738 80.4329 9.8327 81.0665 9.8327C81.6753 9.8327 81.961 10.2354 81.961 10.9274V14.7527H83.986V11.1414C83.986 10.3738 84.3463 9.8327 84.9923 9.8327C85.6011 9.8327 85.8868 10.2354 85.8868 10.9274V14.7527H87.9119V10.5625C87.9119 9.11547 87.1913 8.1214 85.7502 8.1214C84.9302 8.1214 84.2469 8.47373 83.75 9.25388H83.7251C83.4021 8.56181 82.7685 8.1214 81.9361 8.1214C81.0168 8.1214 80.408 8.56181 80.0105 9.22871H79.9732V8.31015H78.0352V14.7527Z" fill="#999999"/>
<path fill-rule="evenodd" clip-rule="evenodd" d="M10.7072 21.0452C16.425 21.0452 21.0601 16.3505 21.0601 10.5592C21.0601 4.76802 16.425 0.0733032 10.7072 0.0733032C4.98941 0.0733032 0.354248 4.76802 0.354248 10.5592C0.354248 16.3505 4.98941 21.0452 10.7072 21.0452ZM13.937 4.9581C14.0942 4.39249 13.5522 4.05803 13.0573 4.41516L6.14833 9.40032C5.61158 9.78762 5.69601 10.5592 6.27516 10.5592H8.09448V10.545H11.6403L8.75111 11.5775L7.47744 16.1604C7.32023 16.726 7.86211 17.0605 8.35708 16.7033L15.2661 11.7182C15.8028 11.3309 15.7183 10.5592 15.1392 10.5592H12.3803L13.937 4.9581Z" fill="#999999"/>
</g>
<defs>
<clipPath id="clip0_103_692">
<rect width="88" height="21.4962" fill="white"/>
</clipPath>
</defs>
</svg>
