<svg width="96" height="24" viewBox="0 0 96 24" fill="none" xmlns="http://www.w3.org/2000/svg">
<g clip-path="url(#clip0_103_664)">
<path d="M28.1586 16.6865H34.9883V14.6116H30.586V6.79614H28.1586V16.6865Z" fill="#999999"/>
<path d="M39.0348 15.3023C38.0611 15.3023 37.5536 14.4447 37.5536 13.1583C37.5536 11.8718 38.0611 11.0004 39.0348 11.0004C40.0085 11.0004 40.5296 11.8718 40.5296 13.1583C40.5296 14.4447 40.0085 15.3023 39.0348 15.3023ZM39.0485 16.9069C41.3113 16.9069 42.7925 15.2885 42.7925 13.1583C42.7925 11.028 41.3113 9.40961 39.0485 9.40961C36.7993 9.40961 35.2908 11.028 35.2908 13.1583C35.2908 15.2885 36.7993 16.9069 39.0485 16.9069Z" fill="#999999"/>
<path d="M46.7091 19.1363C47.7514 19.1363 48.6702 18.9011 49.2874 18.3478C49.8496 17.836 50.2199 17.0614 50.2199 15.9962V9.60556H48.0805V10.3664H48.0531C47.6416 9.77155 47.0108 9.39807 46.0782 9.39807C44.3365 9.39807 43.1296 10.8643 43.1296 12.9392C43.1296 15.111 44.5971 16.3006 46.1742 16.3006C47.0245 16.3006 47.5594 15.9547 47.9708 15.4844H48.0256V16.1899C48.0256 17.0475 47.6279 17.5455 46.6816 17.5455C45.9411 17.5455 45.5708 17.2273 45.4474 16.8539H43.2805C43.4999 18.334 44.7754 19.1363 46.7091 19.1363ZM46.6954 14.6268C45.8588 14.6268 45.3102 13.9352 45.3102 12.8701C45.3102 11.7911 45.8588 11.0995 46.6954 11.0995C47.6279 11.0995 48.1216 11.9018 48.1216 12.8562C48.1216 13.8522 47.6691 14.6268 46.6954 14.6268Z" fill="#999999"/>
<path d="M54.6192 15.3023C53.6455 15.3023 53.1381 14.4447 53.1381 13.1583C53.1381 11.8718 53.6455 11.0004 54.6192 11.0004C55.593 11.0004 56.1141 11.8718 56.1141 13.1583C56.1141 14.4447 55.593 15.3023 54.6192 15.3023ZM54.633 16.9069C56.8958 16.9069 58.3767 15.2885 58.3767 13.1583C58.3767 11.028 56.8958 9.40961 54.633 9.40961C52.3838 9.40961 50.8752 11.028 50.8752 13.1583C50.8752 15.2885 52.3838 16.9069 54.633 16.9069Z" fill="#999999"/>
<path d="M59.0297 16.6865H61.2651V9.60417H59.0297V16.6865ZM59.0297 8.62205H61.2651V6.79614H59.0297V8.62205Z" fill="#999999"/>
<path d="M62.2349 19.0256H64.4703V15.9547H64.4977C64.9366 16.5495 65.5811 16.9092 66.4863 16.9092C68.324 16.9092 69.5446 15.4429 69.5446 13.1467C69.5446 11.0165 68.4063 9.39807 66.5411 9.39807C65.5811 9.39807 64.8954 9.82688 64.4154 10.4632H64.3743V9.60556H62.2349V19.0256ZM65.9103 15.1663C64.9503 15.1663 64.4017 14.3778 64.4017 13.2297C64.4017 12.0816 64.8954 11.2101 65.8691 11.2101C66.8291 11.2101 67.2817 12.0124 67.2817 13.2297C67.2817 14.4332 66.7606 15.1663 65.9103 15.1663Z" fill="#999999"/>
<path d="M73.184 16.9092C75.0217 16.9092 76.3795 16.1069 76.3795 14.5576C76.3795 12.7456 74.9257 12.4274 73.6915 12.2199C72.8 12.0539 72.0046 11.9848 72.0046 11.4868C72.0046 11.0442 72.4297 10.8367 72.9783 10.8367C73.5954 10.8367 74.0206 11.0303 74.1029 11.6666H76.16C76.0503 10.2695 74.9806 9.39807 72.992 9.39807C71.3326 9.39807 69.9612 10.1727 69.9612 11.6666C69.9612 13.3265 71.264 13.6585 72.4846 13.866C73.4172 14.032 74.2675 14.1012 74.2675 14.7375C74.2675 15.1939 73.8423 15.4429 73.1703 15.4429C72.4297 15.4429 71.9635 15.0971 71.8812 14.3917H69.7692C69.8377 15.9547 71.1269 16.9092 73.184 16.9092Z" fill="#999999"/>
<path d="M79.4161 16.8956C80.3898 16.8956 81.0069 16.5083 81.5144 15.8166H81.5555V16.6881H83.6949V9.60577H81.4595V13.5619C81.4595 14.4057 80.9932 14.9867 80.2252 14.9867C79.5121 14.9867 79.1692 14.5579 79.1692 13.7832V9.60577H76.9475V14.2535C76.9475 15.8305 77.7978 16.8956 79.4161 16.8956Z" fill="#999999"/>
<path d="M84.6675 16.6879H86.9029V12.7179C86.9029 11.8741 87.3143 11.2793 88.0138 11.2793C88.6858 11.2793 89.0012 11.722 89.0012 12.4828V16.6879H91.2366V12.7179C91.2366 11.8741 91.6343 11.2793 92.3475 11.2793C93.0195 11.2793 93.3349 11.722 93.3349 12.4828V16.6879H95.5703V12.0816C95.5703 10.4909 94.7749 9.39807 93.1841 9.39807C92.2789 9.39807 91.5246 9.78539 90.976 10.643H90.9486C90.5921 9.88221 89.8926 9.39807 88.9738 9.39807C87.9589 9.39807 87.2869 9.88221 86.848 10.6153H86.8069V9.60556H84.6675V16.6879Z" fill="#999999"/>
<path d="M14.52 1.13816L12.2726 0.530762L10.3786 7.66009L8.66872 1.22368L6.42124 1.83109L8.26867 8.78514L3.66716 4.14395L2.0219 5.8034L7.06918 10.8943L0.783601 9.19551L0.181396 11.4623L7.04918 13.3184C6.97055 12.9764 6.92895 12.62 6.92895 12.2537C6.92895 9.6615 9.01238 7.56009 11.5824 7.56009C14.1525 7.56009 16.2359 9.6615 16.2359 12.2537C16.2359 12.6176 16.1948 12.9718 16.1172 13.3119L22.3587 14.9987L22.9609 12.7319L16.0658 10.8684L22.3518 9.16952L21.7496 6.90269L14.8548 8.76606L19.4563 4.1249L17.811 2.46545L12.8338 7.48568L14.52 1.13816Z" fill="#999999"/>
<path d="M16.1111 13.3384C15.9185 14.1601 15.5117 14.8982 14.9535 15.4896L19.4752 20.0504L21.1205 18.391L16.1111 13.3384Z" fill="#999999"/>
<path d="M14.9076 15.5394C14.3427 16.1214 13.6288 16.5557 12.8282 16.7795L14.4736 22.973L16.721 22.3656L14.9076 15.5394Z" fill="#999999"/>
<path d="M12.7442 16.8011C12.3728 16.8974 11.9835 16.9486 11.5823 16.9486C11.1524 16.9486 10.7362 16.8898 10.3411 16.7798L8.69421 22.979L10.9416 23.5864L12.7442 16.8011Z" fill="#999999"/>
<path d="M10.2619 16.7574C9.47357 16.5225 8.77237 16.0826 8.219 15.499L3.68616 20.071L5.33141 21.7305L10.2619 16.7574Z" fill="#999999"/>
<path d="M8.18095 15.4573C7.63707 14.87 7.2409 14.1417 7.05232 13.3327L0.790405 15.0251L1.39261 17.2919L8.18095 15.4573Z" fill="#999999"/>
</g>
<defs>
<clipPath id="clip0_103_664">
<rect width="96" height="23.6308" fill="white"/>
</clipPath>
</defs>
</svg>
