<svg width="97" height="24" viewBox="0 0 97 24" fill="none" xmlns="http://www.w3.org/2000/svg">
<g clip-path="url(#clip0_103_680)">
<path d="M29.2583 16.8173H36.078V14.7525H31.6822V6.97534H29.2583V16.8173Z" fill="#999999"/>
<path d="M40.1185 15.4427C39.1462 15.4427 38.6395 14.5893 38.6395 13.3092C38.6395 12.029 39.1462 11.1618 40.1185 11.1618C41.0908 11.1618 41.6112 12.029 41.6112 13.3092C41.6112 14.5893 41.0908 15.4427 40.1185 15.4427ZM40.1322 17.0395C42.3917 17.0395 43.8707 15.429 43.8707 13.3092C43.8707 11.1894 42.3917 9.57886 40.1322 9.57886C37.8864 9.57886 36.38 11.1894 36.38 13.3092C36.38 15.429 37.8864 17.0395 40.1322 17.0395Z" fill="#999999"/>
<path d="M47.7817 19.255C48.8224 19.255 49.7399 19.021 50.3562 18.4704C50.9176 17.9611 51.2874 17.1903 51.2874 16.1304V9.77099H49.1511V10.5281H49.1237C48.7129 9.93617 48.083 9.56451 47.1518 9.56451C45.4126 9.56451 44.2075 11.0236 44.2075 13.0883C44.2075 15.2494 45.6728 16.4332 47.2476 16.4332C48.0966 16.4332 48.6307 16.0891 49.0415 15.6211H49.0963V16.3231C49.0963 17.1765 48.6992 17.6721 47.7543 17.6721C47.0148 17.6721 46.6451 17.3555 46.5218 16.9838H44.3582C44.5773 18.4567 45.8508 19.255 47.7817 19.255ZM47.768 14.7677C46.9327 14.7677 46.3849 14.0794 46.3849 13.0195C46.3849 11.9459 46.9327 11.2576 47.768 11.2576C48.6992 11.2576 49.1922 12.056 49.1922 13.0058C49.1922 13.9968 48.7403 14.7677 47.768 14.7677Z" fill="#999999"/>
<path d="M55.6799 15.4427C54.7076 15.4427 54.2009 14.5893 54.2009 13.3092C54.2009 12.029 54.7076 11.1618 55.6799 11.1618C56.6522 11.1618 57.1723 12.029 57.1723 13.3092C57.1723 14.5893 56.6522 15.4427 55.6799 15.4427ZM55.6936 17.0395C57.9529 17.0395 59.4319 15.429 59.4319 13.3092C59.4319 11.1894 57.9529 9.57886 55.6936 9.57886C53.4478 9.57886 51.9414 11.1894 51.9414 13.3092C51.9414 15.429 53.4478 17.0395 55.6936 17.0395Z" fill="#999999"/>
<path d="M60.0839 16.8173H62.316V9.76963H60.0839V16.8173ZM60.0839 8.79232H62.316V6.97534H60.0839V8.79232Z" fill="#999999"/>
<path d="M63.2845 19.1449H65.5167V16.0891H65.5441C65.9823 16.681 66.6259 17.0389 67.5297 17.0389C69.3647 17.0389 70.5835 15.5798 70.5835 13.2948C70.5835 11.175 69.4469 9.56451 67.5845 9.56451C66.6259 9.56451 65.9412 9.99123 65.4619 10.6244H65.4208V9.77099H63.2845V19.1449ZM66.9546 15.3045C65.996 15.3045 65.4482 14.5199 65.4482 13.3774C65.4482 12.2349 65.9412 11.3677 66.9135 11.3677C67.8721 11.3677 68.324 12.1661 68.324 13.3774C68.324 14.575 67.8036 15.3045 66.9546 15.3045Z" fill="#999999"/>
<path d="M74.2176 17.0389C76.0526 17.0389 77.4083 16.2405 77.4083 14.6988C77.4083 12.8956 75.9567 12.579 74.7243 12.3726C73.8341 12.2074 73.0399 12.1386 73.0399 11.643C73.0399 11.2025 73.4644 10.9961 74.0122 10.9961C74.6284 10.9961 75.0529 11.1888 75.1351 11.822H77.1892C77.0796 10.4317 76.0115 9.56451 74.0259 9.56451C72.3689 9.56451 70.9995 10.3354 70.9995 11.822C70.9995 13.4738 72.3004 13.8041 73.5192 14.0106C74.4504 14.1758 75.2994 14.2446 75.2994 14.8778C75.2994 15.332 74.8749 15.5798 74.2039 15.5798C73.4644 15.5798 72.9988 15.2357 72.9166 14.5337H70.8077C70.8762 16.0891 72.1635 17.0389 74.2176 17.0389Z" fill="#999999"/>
<path d="M80.4403 17.0253C81.4126 17.0253 82.0288 16.6399 82.5355 15.9516H82.5766V16.8188H84.7128V9.77118H82.4807V13.708C82.4807 14.5476 82.0151 15.1258 81.2482 15.1258C80.5361 15.1258 80.1938 14.699 80.1938 13.9282V9.77118H77.9753V14.3962C77.9753 15.9654 78.8244 17.0253 80.4403 17.0253Z" fill="#999999"/>
<path d="M85.6841 16.8187H87.9162V12.8681C87.9162 12.0284 88.327 11.4365 89.0254 11.4365C89.6965 11.4365 90.0114 11.877 90.0114 12.6341V16.8187H92.2436V12.8681C92.2436 12.0284 92.6407 11.4365 93.3528 11.4365C94.0238 11.4365 94.3388 11.877 94.3388 12.6341V16.8187H96.5709V12.2349C96.5709 10.6519 95.7767 9.56451 94.1881 9.56451C93.2843 9.56451 92.5311 9.94993 91.9834 10.8034H91.956C91.5999 10.0463 90.9015 9.56451 89.984 9.56451C88.9707 9.56451 88.2997 10.0463 87.8614 10.7758H87.8204V9.77099H85.6841V16.8187Z" fill="#999999"/>
<path fill-rule="evenodd" clip-rule="evenodd" d="M11.4695 23.1282C17.7721 23.1282 22.8812 17.9925 22.8812 11.6574C22.8812 5.32223 17.7721 0.186584 11.4695 0.186584C5.16695 0.186584 0.0577393 5.32223 0.0577393 11.6574C0.0577393 17.9925 5.16695 23.1282 11.4695 23.1282ZM13.2309 9.04925C14.2036 8.07142 14.2036 6.4861 13.2309 5.50827C12.2581 4.53045 10.6809 4.53045 9.70813 5.50827C8.73539 6.4861 8.73539 8.07142 9.70813 9.04925L11.4695 10.8197L13.2309 9.04925ZM14.0642 13.4279C15.037 14.4057 16.6142 14.4057 17.587 13.4279C18.5597 12.4501 18.5597 10.8647 17.587 9.8869C16.6142 8.90913 15.037 8.90913 14.0642 9.8869L12.3029 11.6574L14.0642 13.4279ZM13.2309 17.8065C14.2036 16.8287 14.2036 15.2434 13.2309 14.2655L11.4695 12.4951L9.70813 14.2655C8.73539 15.2434 8.73539 16.8287 9.70813 17.8065C10.6809 18.7843 12.2581 18.7843 13.2309 17.8065ZM5.35202 13.4279C4.37925 12.4501 4.37925 10.8647 5.35202 9.8869C6.32483 8.90913 7.90199 8.90913 8.87479 9.8869L10.6361 11.6574L8.87479 13.4279C7.90199 14.4057 6.32483 14.4057 5.35202 13.4279Z" fill="#999999"/>
</g>
<defs>
<clipPath id="clip0_103_680">
<rect width="97" height="23.5152" fill="white"/>
</clipPath>
</defs>
</svg>
