<svg width="88" height="22" viewBox="0 0 88 22" fill="none" xmlns="http://www.w3.org/2000/svg">
<g clip-path="url(#clip0_103_703)">
<path d="M26.5436 15.2569H32.7305V13.3837H28.7425V6.32812H26.5436V15.2569Z" fill="#999999"/>
<path d="M36.3961 14.0099C35.5141 14.0099 35.0544 13.2357 35.0544 12.0743C35.0544 10.913 35.5141 10.1262 36.3961 10.1262C37.2782 10.1262 37.7503 10.913 37.7503 12.0743C37.7503 13.2357 37.2782 14.0099 36.3961 14.0099ZM36.4086 15.4585C38.4584 15.4585 39.8002 13.9974 39.8002 12.0743C39.8002 10.1512 38.4584 8.69012 36.4086 8.69012C34.3711 8.69012 33.0045 10.1512 33.0045 12.0743C33.0045 13.9974 34.3711 15.4585 36.4086 15.4585Z" fill="#999999"/>
<path d="M43.3484 17.4685C44.2926 17.4685 45.1249 17.2562 45.684 16.7567C46.1934 16.2946 46.5288 15.5953 46.5288 14.6337V8.86438H44.5907V9.55121H44.5659C44.1932 9.01423 43.6217 8.67706 42.7769 8.67706C41.1991 8.67706 40.1058 10.0008 40.1058 11.8739C40.1058 13.8345 41.4352 14.9085 42.8639 14.9085C43.6341 14.9085 44.1186 14.5963 44.4913 14.1717H44.541V14.8086C44.541 15.5828 44.1808 16.0324 43.3235 16.0324C42.6527 16.0324 42.3172 15.7452 42.2054 15.408H40.2425C40.4413 16.7442 41.5967 17.4685 43.3484 17.4685ZM43.336 13.3975C42.5781 13.3975 42.0812 12.7731 42.0812 11.8115C42.0812 10.8375 42.5781 10.2131 43.336 10.2131C44.1808 10.2131 44.628 10.9374 44.628 11.799C44.628 12.6981 44.218 13.3975 43.336 13.3975Z" fill="#999999"/>
<path d="M50.5137 14.0099C49.6316 14.0099 49.172 13.2357 49.172 12.0743C49.172 10.913 49.6316 10.1262 50.5137 10.1262C51.3958 10.1262 51.8676 10.913 51.8676 12.0743C51.8676 13.2357 51.3958 14.0099 50.5137 14.0099ZM50.5261 15.4585C52.5758 15.4585 53.9175 13.9974 53.9175 12.0743C53.9175 10.1512 52.5758 8.69012 50.5261 8.69012C48.4887 8.69012 47.1221 10.1512 47.1221 12.0743C47.1221 13.9974 48.4887 15.4585 50.5261 15.4585Z" fill="#999999"/>
<path d="M54.5092 15.2569H56.5342V8.86315H54.5092V15.2569ZM54.5092 7.97651H56.5342V6.32812H54.5092V7.97651Z" fill="#999999"/>
<path d="M57.4127 17.3686H59.4378V14.5963H59.4626C59.8602 15.1333 60.4441 15.4579 61.264 15.4579C62.9288 15.4579 64.0345 14.1342 64.0345 12.0613C64.0345 10.1381 63.0033 8.67706 61.3137 8.67706C60.4441 8.67706 59.8229 9.06418 59.3881 9.63862H59.3508V8.86438H57.4127V17.3686ZM60.7422 13.8845C59.8726 13.8845 59.3756 13.1727 59.3756 12.1362C59.3756 11.0997 59.8229 10.313 60.705 10.313C61.5746 10.313 61.9846 11.0373 61.9846 12.1362C61.9846 13.2226 61.5125 13.8845 60.7422 13.8845Z" fill="#999999"/>
<path d="M67.3314 15.4579C68.9961 15.4579 70.2261 14.7336 70.2261 13.335C70.2261 11.6991 68.9092 11.4119 67.791 11.2246C66.9835 11.0747 66.2629 11.0123 66.2629 10.5627C66.2629 10.1631 66.6481 9.97579 67.145 9.97579C67.7041 9.97579 68.0892 10.1506 68.1637 10.7251H70.0273C69.9279 9.4638 68.9589 8.67706 67.1574 8.67706C65.6542 8.67706 64.4118 9.37638 64.4118 10.7251C64.4118 12.2236 65.5921 12.5233 66.6978 12.7106C67.5426 12.8605 68.3128 12.9229 68.3128 13.4974C68.3128 13.9095 67.9277 14.1342 67.319 14.1342C66.6481 14.1342 66.2257 13.822 66.1511 13.1852H64.2379C64.3 14.5963 65.4678 15.4579 67.3314 15.4579Z" fill="#999999"/>
<path d="M72.9768 15.4456C73.8589 15.4456 74.418 15.096 74.8776 14.4716H74.9149V15.2583H76.853V8.86456H74.8279V12.4361C74.8279 13.1978 74.4055 13.7223 73.7098 13.7223C73.0638 13.7223 72.7532 13.3352 72.7532 12.6359V8.86456H70.7406V13.0605C70.7406 14.4841 71.5109 15.4456 72.9768 15.4456Z" fill="#999999"/>
<path d="M77.734 15.2581H79.759V11.6741C79.759 10.9124 80.1318 10.3754 80.7654 10.3754C81.3741 10.3754 81.6598 10.775 81.6598 11.4618V15.2581H83.6849V11.6741C83.6849 10.9124 84.0452 10.3754 84.6912 10.3754C85.2999 10.3754 85.5857 10.775 85.5857 11.4618V15.2581H87.6107V11.0997C87.6107 9.6636 86.8902 8.67706 85.449 8.67706C84.6291 8.67706 83.9458 9.02672 83.4488 9.80097H83.424C83.101 9.11414 82.4674 8.67706 81.635 8.67706C80.7157 8.67706 80.1069 9.11414 79.7093 9.77599H79.6721V8.86438H77.734V15.2581Z" fill="#999999"/>
<path fill-rule="evenodd" clip-rule="evenodd" d="M10.4053 20.9822C16.1231 20.9822 20.7582 16.3231 20.7582 10.5757C20.7582 4.8284 16.1231 0.16925 10.4053 0.16925C4.68753 0.16925 0.0523682 4.8284 0.0523682 10.5757C0.0523682 16.3231 4.68753 20.9822 10.4053 20.9822ZM12.0033 8.20961C12.8857 7.3225 12.8857 5.88427 12.0033 4.99717C11.1207 4.11008 9.6899 4.11008 8.80736 4.99717C7.92488 5.88427 7.92488 7.3225 8.80736 8.20961L10.4053 9.8158L12.0033 8.20961ZM12.7593 12.182C13.6418 13.0691 15.0727 13.0691 15.9552 12.182C16.8377 11.2949 16.8377 9.85664 15.9552 8.96954C15.0727 8.08249 13.6418 8.08249 12.7593 8.96954L11.1614 10.5758L12.7593 12.182ZM12.0033 16.1543C12.8857 15.2672 12.8857 13.829 12.0033 12.9419L10.4053 11.3357L8.80736 12.9419C7.92488 13.829 7.92488 15.2672 8.80736 16.1543C9.6899 17.0414 11.1207 17.0414 12.0033 16.1543ZM4.85542 12.182C3.97292 11.2949 3.97292 9.85664 4.85542 8.96954C5.73798 8.08249 7.1688 8.08249 8.05134 8.96954L9.64926 10.5758L8.05134 12.182C7.1688 13.0691 5.73798 13.0691 4.85542 12.182Z" fill="#999999"/>
</g>
<defs>
<clipPath id="clip0_103_703">
<rect width="88" height="21.3333" fill="white"/>
</clipPath>
</defs>
</svg>
