<svg width="97" height="24" viewBox="0 0 97 24" fill="none" xmlns="http://www.w3.org/2000/svg">
<g clip-path="url(#clip0_103_653)">
<path d="M28.2465 16.3253H35.1886V14.284H30.7139V6.59521H28.2465V16.3253Z" fill="#999999"/>
<path d="M39.3016 14.9664C38.3119 14.9664 37.7961 14.1227 37.7961 12.8571C37.7961 11.5915 38.3119 10.7342 39.3016 10.7342C40.2914 10.7342 40.8211 11.5915 40.8211 12.8571C40.8211 14.1227 40.2914 14.9664 39.3016 14.9664ZM39.3156 16.545C41.6157 16.545 43.1212 14.9528 43.1212 12.8571C43.1212 10.7614 41.6157 9.16919 39.3156 9.16919C37.0294 9.16919 35.496 10.7614 35.496 12.8571C35.496 14.9528 37.0294 16.545 39.3156 16.545Z" fill="#999999"/>
<path d="M47.1028 18.7354C48.1623 18.7354 49.0963 18.5041 49.7236 17.9598C50.2951 17.4562 50.6715 16.6942 50.6715 15.6463V9.35916H48.4969V10.1076H48.469C48.0508 9.52246 47.4095 9.15503 46.4616 9.15503C44.6912 9.15503 43.4645 10.5975 43.4645 12.6388C43.4645 14.7754 44.9561 15.9457 46.5592 15.9457C47.4235 15.9457 47.9671 15.6055 48.3853 15.1428H48.4411V15.8368C48.4411 16.6806 48.0368 17.1705 47.075 17.1705C46.3222 17.1705 45.9458 16.8575 45.8204 16.49H43.6178C43.8409 17.9462 45.1373 18.7354 47.1028 18.7354ZM47.0889 14.2991C46.2386 14.2991 45.681 13.6186 45.681 12.5708C45.681 11.5093 46.2386 10.8289 47.0889 10.8289C48.0368 10.8289 48.5387 11.6182 48.5387 12.5572C48.5387 13.537 48.0787 14.2991 47.0889 14.2991Z" fill="#999999"/>
<path d="M55.1431 14.9664C54.1533 14.9664 53.6375 14.1227 53.6375 12.8571C53.6375 11.5915 54.1533 10.7342 55.1431 10.7342C56.1328 10.7342 56.6625 11.5915 56.6625 12.8571C56.6625 14.1227 56.1328 14.9664 55.1431 14.9664ZM55.157 16.545C57.4571 16.545 58.9628 14.9528 58.9628 12.8571C58.9628 10.7614 57.4571 9.16919 55.157 9.16919C52.8708 9.16919 51.3374 10.7614 51.3374 12.8571C51.3374 14.9528 52.8708 16.545 55.157 16.545Z" fill="#999999"/>
<path d="M59.626 16.3253H61.8982V9.35775H59.626V16.3253ZM59.626 8.39154H61.8982V6.59521H59.626V8.39154Z" fill="#999999"/>
<path d="M62.8838 18.6266H65.156V15.6055H65.1839C65.63 16.1906 66.2852 16.5445 67.2052 16.5445C69.0732 16.5445 70.3139 15.102 70.3139 12.8429C70.3139 10.7472 69.1568 9.15503 67.261 9.15503C66.2852 9.15503 65.5882 9.5769 65.1003 10.2029H65.0584V9.35916H62.8838V18.6266ZM66.6197 14.8298C65.6439 14.8298 65.0863 14.0541 65.0863 12.9246C65.0863 11.7951 65.5882 10.9377 66.5779 10.9377C67.5537 10.9377 68.0138 11.727 68.0138 12.9246C68.0138 14.1085 67.484 14.8298 66.6197 14.8298Z" fill="#999999"/>
<path d="M74.0138 16.5445C75.8818 16.5445 77.2619 15.7552 77.2619 14.231C77.2619 12.4483 75.7842 12.1353 74.5296 11.9312C73.6235 11.7679 72.815 11.6998 72.815 11.2099C72.815 10.7744 73.2471 10.5703 73.8047 10.5703C74.432 10.5703 74.8642 10.7608 74.9478 11.3868H77.0388C76.9273 10.0124 75.84 9.15503 73.8187 9.15503C72.1319 9.15503 70.7379 9.91711 70.7379 11.3868C70.7379 13.0199 72.0622 13.3465 73.3029 13.5506C74.2508 13.7139 75.1151 13.7819 75.1151 14.4079C75.1151 14.857 74.6829 15.102 73.9999 15.102C73.2471 15.102 72.7731 14.7618 72.6895 14.0677H70.5427C70.6124 15.6055 71.9228 16.5445 74.0138 16.5445Z" fill="#999999"/>
<path d="M80.3481 16.531C81.3378 16.531 81.9651 16.15 82.4809 15.4696H82.5227V16.3269H84.6974V9.35931H82.4252V13.2514C82.4252 14.0815 81.9512 14.653 81.1706 14.653C80.4457 14.653 80.0972 14.2312 80.0972 13.4691V9.35931H77.8389V13.9318C77.8389 15.4832 78.7032 16.531 80.3481 16.531Z" fill="#999999"/>
<path d="M85.6857 16.3267H87.9579V12.4211C87.9579 11.591 88.3761 11.0058 89.0871 11.0058C89.7701 11.0058 90.0907 11.4413 90.0907 12.1897V16.3267H92.363V12.4211C92.363 11.591 92.7673 11.0058 93.4921 11.0058C94.1752 11.0058 94.4958 11.4413 94.4958 12.1897V16.3267H96.7681V11.7951C96.7681 10.2301 95.9595 9.15503 94.3425 9.15503C93.4224 9.15503 92.6557 9.53607 92.0981 10.3798H92.0702C91.7078 9.63133 90.9969 9.15503 90.0629 9.15503C89.0313 9.15503 88.3482 9.63133 87.9022 10.3526H87.8603V9.35916H85.6857V16.3267Z" fill="#999999"/>
<path fill-rule="evenodd" clip-rule="evenodd" d="M5.02647 2.20749C4.19549 2.77472 3.44406 3.44536 2.79175 4.20031C5.45739 3.95872 8.84399 4.35321 12.7758 6.27237C16.9744 8.3217 20.3554 8.39099 22.7084 7.94792C22.4948 7.31688 22.226 6.7104 21.9077 6.13385C19.2142 6.41118 15.7611 6.04409 11.7368 4.07986C9.18134 2.83253 6.92873 2.31871 5.02647 2.20749ZM20.3342 3.94756C18.2072 1.6275 15.116 0.167419 11.6755 0.167419C10.6651 0.167419 9.68475 0.293359 8.75018 0.530019C10.0159 0.867174 11.3606 1.36043 12.7758 2.05122C15.7222 3.48934 18.2659 3.95238 20.3342 3.94756ZM23.2114 10.1629C20.3688 10.7109 16.4434 10.5984 11.7368 8.30101C7.3366 6.15324 3.83441 6.18029 1.47242 6.6927C1.3505 6.71913 1.23145 6.74691 1.11528 6.77583C0.806034 7.43239 0.559186 8.12279 0.38207 8.83974C0.571239 8.79041 0.766717 8.74351 0.968402 8.69974C3.83391 8.07811 7.88264 8.1051 12.7758 10.4935C17.1761 12.6413 20.6782 12.6142 23.0403 12.1018C23.1212 12.0843 23.2009 12.0662 23.2793 12.0474C23.2879 11.8687 23.2922 11.6887 23.2922 11.5079C23.2922 11.0528 23.2648 10.604 23.2114 10.1629ZM22.9 14.4407C20.085 14.9211 16.274 14.7367 11.7368 12.5222C7.3366 10.3744 3.83441 10.4014 1.47242 10.9138C0.948124 11.0275 0.476477 11.1661 0.0604177 11.3123C0.0592833 11.3773 0.0587158 11.4425 0.0587158 11.5079C0.0587158 17.771 5.25971 22.8483 11.6755 22.8483C17.0523 22.8483 21.576 19.2823 22.9 14.4407Z" fill="#999999"/>
</g>
<defs>
<clipPath id="clip0_103_653">
<rect width="97" height="23.2479" fill="white"/>
</clipPath>
</defs>
</svg>
